<?xml version="1.0" standalone="no"?>
<!DOCTYPE svg PUBLIC "-//W3C//DTD SVG 1.1//EN" "http://www.w3.org/Graphics/SVG/1.1/DTD/svg11.dtd">
<svg xmlns="http://www.w3.org/2000/svg" id="Layer_2" viewBox="0 0 284.1 126.3" width="284.1000061035156" height="126.30000305175781"><defs><style>.cls-1{fill:#242835;}.cls-1,.cls-2{stroke-width:0px;}.cls-2{fill:#fe4338;}</style></defs><g id="Layer_1-2"><path class="cls-1" d="m24.9,92.2c0-.3.1-.6.3-.8.2-.2.5-.3.8-.3h21.6c3,0,5.6,1,7.7,3.1,2.2,2.1,3.2,4.7,3.2,7.6,0,.9-.1,1.8-.4,2.7-.3.9-.6,1.7-1.1,2.4-.1.2-.2.4-.2.7s.1.6.4.8c.9.8,1.7,1.9,2.2,3.2.5,1.3.8,2.6.8,3.9,0,2.9-1.1,5.4-3.2,7.6-2.1,2.1-4.7,3.1-7.7,3.1h-23.3c-.3,0-.6-.1-.8-.3-.2-.2-.3-.5-.3-.8,0,0,0-32.9,0-32.9Zm22.3,12.9c.9,0,1.7-.3,2.3-1s.9-1.5.9-2.4-.3-1.7-.9-2.3c-.6-.7-1.4-1-2.3-1h-12.8c-.3,0-.6.1-.8.3-.2.2-.3.5-.3.8v4.5c0,.3.1.6.3.8.2.2.5.3.8.3h12.8Zm1.4,13.7c.9,0,1.7-.3,2.4-1s1-1.5,1-2.3c0-.9-.3-1.8-1-2.4s-1.4-1-2.4-1h-14.2c-.3,0-.6.1-.8.3-.2.2-.3.5-.3.8v4.5c0,.3.1.6.3.8.2.2.5.3.8.3h14.2Z"/><path class="cls-1" d="m126.9,125c0,.3-.1.6-.3.8s-.5.3-.8.3h-6.1c-.3,0-.6-.1-.8-.3s-.3-.5-.3-.8v-32.8c0-.3.1-.6.3-.8s.5-.3.8-.3h6.1c.3,0,.6.1.8.3s.3.5.3.8v32.8Z"/><path class="cls-1" d="m141,126.1c-.3,0-.6-.1-.8-.3-.2-.2-.3-.5-.3-.8v-32.8c0-.3.1-.6.3-.8.2-.2.5-.3.8-.3h16.5c4.9,0,9.1,1.7,12.6,5.1s5.2,7.6,5.2,12.4-1.7,8.9-5.2,12.4c-3.5,3.4-7.6,5.1-12.6,5.1,0,0-16.5,0-16.5,0Zm7.2-8c0,.2.4.2,1.1.2h8.2c2.6,0,4.9-.9,6.7-2.9,1.9-1.9,2.8-4.2,2.8-6.9s-.9-4.9-2.8-6.8c-1.8-1.9-4.1-2.9-6.7-2.9h-8.2c-.3,0-.6.1-.8.3-.2.2-.3.5-.3.8v18.2h0Z"/><path class="cls-1" d="m203.8,90.8c3.2,0,6.2.7,9.2,2.1,2.5,1.2,4.6,2.8,6.2,4.8.2.2.3.5.3.7,0,.4-.2.7-.5.9l-4.9,3.3c-.2.2-.5.2-.7.2-.3,0-.6-.1-.8-.4-1.1-1.2-2.4-2.2-3.9-2.8-1.5-.7-3.1-1-4.8-1-3,0-5.7,1-7.9,2.9s-3.3,4.2-3.3,6.9,1.1,5.1,3.3,7,4.8,2.9,8,2.9c1.7,0,3.4-.4,4.9-1.1s2.9-1.7,4-3c.1-.1.2-.3.2-.6v-.2c0-.2-.1-.3-.3-.4s-.5-.1-.8-.1h-8c-.3,0-.6-.1-.8-.3-.2-.2-.3-.5-.3-.8v-4.4c0-.3.1-.6.3-.8.2-.2.5-.3.8-.3h16c.3,0,.6.1.8.3.2.2.3.5.3.8v9.2c0,.2,0,.3-.1.5-2,3-4.4,5.2-7.4,6.8-2.9,1.6-6.1,2.3-9.6,2.3-5.4,0-9.9-1.7-13.7-5.1-3.8-3.5-5.7-7.7-5.7-12.6s1.9-9.2,5.8-12.6c3.5-3.4,8.1-5.1,13.4-5.1Z"/><path class="cls-1" d="m265.4,125c0,.3-.1.6-.3.8-.2.2-.5.3-.8.3h-31.1c-.3,0-.6-.1-.8-.3-.2-.2-.3-.5-.3-.8v-32.8c0-.3.1-.6.3-.8.2-.2.5-.3.8-.3h31.1c.3,0,.6.1.8.3.2.2.3.5.3.8v5.5c0,.3-.1.6-.3.8-.2.2-.5.3-.8.3h-22.8c-.3,0-.6.1-.8.3-.2.2-.3.5-.3.8v3.9c0,.3.1.6.3.8.2.2.5.3.8.3h14.6c.3,0,.6.1.8.3.2.2.3.5.3.8v5c0,.3-.1.6-.3.8-.2.2-.5.3-.8.3h-14.6c-.3,0-.6.1-.8.3-.2.2-.3.5-.3.8v3.9c0,.3.1.6.3.8.2.2.5.3.8.3h22.7c.3,0,.6.1.8.3s.3.5.3.8l.1,5.7h0Z"/><path class="cls-1" d="m98.7,115.2c-.2-.3-.4-.6-.4-.9s.1-.5.3-.7c.2-.2.4-.4.7-.5,1.9-.7,3.4-1.8,4.7-3.3,1.7-2,2.6-4.4,2.6-7.2,0-3.2-1.2-5.9-3.5-8.2-2.3-2.3-5.1-3.4-8.4-3.4h-21.6c-.3,0-.6.1-.8.3s-.3.5-.3.8v32.9c0,.3.1.6.3.8s.5.3.8.3h6.1c.3,0,.6-.1.8-.3s.3-.5.3-.8v-25.6c0-.3.1-.6.3-.8s.5-.3.8-.3h12.1c1.4,0,2.6.4,3.4,1.2.8.8,1.2,1.8,1.2,3s-.4,2.2-1.2,3c-.8.8-1.9,1.2-3.4,1.2h-5.7c-.1,0-.2.1-.2.2v7.2c0,.2.1.4.2.6s9.5,11.2,9.5,11.2c.2.2.4.4.7.4h6.5c.5,0,.9-.1,1.2-.4.3-.3.4-.6.4-1s-.2-.8-.4-1.1c-2.2-2.8-4.5-5.6-7-8.6Z"/><path class="cls-1" d="m2.2,121.6v4.1H0v-10.5h2.2v4.1h10.6v2.4H2.2v-.1Z"/><path class="cls-1" d="m12.8,105h-5.2v6.3h5.2v2.4H0v-2.4h5.4v-6.3H0v-2.4h12.8v2.4Z"/><path class="cls-1" d="m12.8,90.8v9.6H0v-9.6h2.3v7.2h2.9v-6.9h2.2v6.9h2.9v-7.2h2.5Z"/><path class="cls-2" d="m264,73.5c-60.5-15.6-85.3-53.7-92.5-65.5V1.1c0-.3-.1-.6-.3-.8-.2-.2-.5-.3-.8-.3h-6.1c-.3,0-.6.1-.8.3-.2.2-.3.5-.3.8v64.4c-3.4,0-14.5-.1-18-.1h-.3c-3.5,0-14.6,0-18,.1V1.1c0-.3-.1-.6-.3-.8-.2-.2-.5-.3-.8-.3h-6.1c-.3,0-.6.1-.8.3-.2.2-.3.5-.3.8v6.9c-7.2,11.8-32,49.9-92.6,65.5-1.1.3-1.2,1.8-.8,4,.4,2.4,1.1,3.3,2.9,3,19.1-2.7,36.1-4.8,55.2-6.2,0,0,0,.1.1.1s.2-.1.3-.1c10-.7,22.6-1.2,34.9-1.5v6.6c0,.3.1.6.3.8s.5.3.8.3h6.1c.3,0,.6-.1.8-.3s.3-.5.3-.8v-6.8c6.5-.1,12.7-.2,18.1-.2s11.6.1,18.1.2v6.8c0,.3.1.6.3.8.2.2.5.3.8.3h6.1c.3,0,.6-.1.8-.3.2-.2.3-.5.3-.8v-6.6c12.3.3,24.9.8,34.9,1.5.1,0,.2.1.3.1,0,0,0-.1.1-.1,19.2,1.3,36.2,3.4,55.3,6.2,1.7.2,2.5-.6,2.9-3,.3-2.1.2-3.7-.9-4Zm-145.4-7.8c-6.4.2-12.8.4-19.2.7,6.9-4.2,13.1-9.1,19.2-15.7,0,0,0,15,0,15Zm0-26.3c-11.2,14.2-21.9,21.2-37.1,28-8.1.6-16.3,1.3-24.5,2.2,33.1-15,52-35.5,61.6-48.6v18.4Zm52.9,26.3v-15c6.1,6.6,12.2,11.5,19.2,15.7-6.4-.3-12.8-.5-19.2-.7Zm37.1,1.8c-15.1-6.8-25.9-13.8-37.1-28v-18.5c9.7,13.1,28.5,33.6,61.6,48.6-8.2-.8-16.4-1.6-24.5-2.1Z"/><path class="cls-1" d="m275.5,91.7h-1.8v-.7h4.4v.6h-1.8v3.8h-.8v-3.7h0Zm3.5-.7h.7l1.8,2.4,1.9-2.4h.7v4.5h-.8v-3.2l-1.7,2.1h-.1l-1.7-2.2v3.3h-.8v-4.5Z"/></g></svg>